<svg version="1.1" id="Layer_1" xmlns:sketch="http://www.bohemiancoding.com/sketch/ns"
	 xmlns="http://www.w3.org/2000/svg" xmlns:xlink="http://www.w3.org/1999/xlink" x="0px" y="0px" viewBox="-280 372 50 50"
	 enable-background="new -280 372 50 50" xml:space="preserve">
<title></title>
<g id="Page-1">
	<g id="Mail">
		<path id="Oval-1" fill="#FFFFFF" d="M-243,404v-15l-8.7,8.5L-243,404z M-267,404l8.7-6.5l-8.7-8.5V404z M-257.1,398.6l-9.9,6.4h24
			l-9.9-6.4l-2.1,2L-257.1,398.6z M-266.3,389l11.3,9.1l11.3-9.1H-266.3z"/>
	</g>
</g>
<g>
	<g>
		<path fill="#FFFFFF" d="M-255,372c-13.8,0-25,11.2-25,25s11.2,25,25,25s25-11.2,25-25S-241.2,372-255,372z M-255,419
			c-12.2,0-22-9.8-22-22s9.8-22,22-22s22,9.8,22,22S-242.8,419-255,419z"/>
	</g>
</g>
</svg>
