<?xml version="1.0" encoding="utf-8"?>
<!-- Generator: Adobe Illustrator 19.1.0, SVG Export Plug-In . SVG Version: 6.00 Build 0)  -->
<svg version="1.1" id="Layer_1" xmlns="http://www.w3.org/2000/svg" xmlns:xlink="http://www.w3.org/1999/xlink" x="0px" y="0px"
	 width="248px" height="46px" viewBox="0 0 248 46" style="enable-background:new 0 0 248 46;" xml:space="preserve">
<style type="text/css">
	.st0{fill:#FFFFFF;}
</style>
<path class="st0" d="M203.9,27.4c0.7-2.9,1.1-5.3,1.1-7.7c0-9.9-6.6-17.6-17.8-17.6c-12.2,0-21.9,9.1-23.8,21
	c-2,12.6,5.7,21,17.7,21c9.5,0,17.4-5.3,21.5-13.4H188c-1.8,1.9-4.2,2.4-6.3,2.3c-4.2-0.1-6.1-2.5-6.2-5.6H203.9z M186.4,12.7
	c3.7,0,6.2,2.3,6,5.8h-14.8C179,15,182.3,12.7,186.4,12.7z"/>
<path class="st0" d="M234.6,2.2c-5,0-9.1,4.1-9.1,9.1c0,5,4.1,9.2,9.1,9.2c5,0,9.2-4.1,9.1-9.2C243.7,6.3,239.6,2.2,234.6,2.2z"/>
<path class="st0" d="M148.8,2c-4.6,0-10.1,2.8-12.8,6.4l1.5-5.4h-13l-7.1,40.1h13.9l4-22.7c0.7-3.8,3.6-6.4,7.1-6.4
	c3.4,0,5,2.7,4.4,6.4l-4,22.7h13.9l4.3-24.6C162.9,8.4,158,2,148.8,2z"/>
<polygon class="st0" points="5,3 41.7,3 39.4,15.9 28.3,15.9 23.5,43.1 9.5,43.1 14.3,15.9 2.7,15.9 "/>
<path class="st0" d="M44.9,3h13.9l-3.9,22.3c-0.7,3.8,1.1,6.1,4.5,6.1c3.5,0,6.2-2.4,6.9-6.1L70.2,3h13.9l-3.8,21.4
	C78,37.8,69.3,44.1,57.6,44.1c-11.9,0-18.8-6.5-16.4-19.7L44.9,3z"/>
<polygon class="st0" points="80.6,43.1 94.6,43.1 101.6,3 87.7,3 "/>
<path class="st0" d="M110.9,2.2c-5,0-9.1,4.1-9.1,9.1c0,5,4.1,9.2,9.1,9.2c5,0,9.2-4.1,9.1-9.2C120.1,6.3,116,2.2,110.9,2.2z"/>
<polygon class="st0" points="204.3,43.1 218.2,43.1 225.3,3 211.3,3 "/>
</svg>
