<svg version="1.1" id="Layer_1" xmlns:sketch="http://www.bohemiancoding.com/sketch/ns"
	 xmlns="http://www.w3.org/2000/svg" xmlns:xlink="http://www.w3.org/1999/xlink" x="0px" y="0px" viewBox="-280 372 50 50"
	 enable-background="new -280 372 50 50" xml:space="preserve">
<title></title>
<path id="Oval-1" fill="#fff" d="M-255.3,392.6l0,0.8l-0.8-0.1c-2.9-0.4-5.4-1.7-7.6-3.9l-1-1.1l-0.3,0.8c-0.6,1.8-0.2,3.7,1,5
	c0.6,0.7,0.5,0.8-0.6,0.4c-0.4-0.1-0.7-0.2-0.7-0.2c-0.1,0.1,0.3,1.6,0.6,2.2c0.4,0.8,1.3,1.7,2.2,2.1l0.8,0.4l-0.9,0
	c-0.9,0-0.9,0-0.8,0.4c0.3,1.1,1.6,2.2,3,2.8l1,0.4l-0.9,0.5c-1.3,0.8-2.8,1.2-4.3,1.2c-0.7,0-1.3,0.1-1.3,0.1
	c0,0.2,1.9,1.1,3.1,1.5c3.4,1.1,7.4,0.6,10.4-1.2c2.1-1.3,4.3-4,5.3-6.5c0.5-1.4,1.1-3.8,1.1-5c0-0.8,0-0.9,0.9-1.8
	c0.5-0.5,1-1.1,1.1-1.3c0.2-0.3,0.1-0.3-0.7,0c-1.4,0.5-1.5,0.4-0.9-0.3c0.5-0.5,1.1-1.5,1.1-1.8c0-0.1-0.2,0-0.5,0.2
	c-0.3,0.2-0.9,0.4-1.4,0.6l-0.9,0.3l-0.8-0.6c-0.4-0.3-1-0.6-1.4-0.7c-0.8-0.2-2.1-0.2-2.8,0.1
	C-254.2,388.5-255.5,390.4-255.3,392.6C-255.3,392.6-255.5,390.4-255.3,392.6z"/>
<g>
	<g>
		<path fill="#fff" d="M-255,372c-13.8,0-25,11.2-25,25s11.2,25,25,25s25-11.2,25-25S-241.2,372-255,372z M-255,419
			c-12.2,0-22-9.8-22-22s9.8-22,22-22s22,9.8,22,22S-242.8,419-255,419z"/>
	</g>
</g>
</svg>
