<svg version="1.1" id="Layer_1" xmlns="http://www.w3.org/2000/svg" xmlns:xlink="http://www.w3.org/1999/xlink" x="0px" y="0px"
	 width="50px" height="50px" viewBox="0 0 50 50" style="enable-background:new 0 0 50 50;" xml:space="preserve">
<style type="text/css">
	.st0{fill:#FFFFFF;}
</style>
<g id="_x7C___x7C__1_">
	<path id="Dialog_1_" class="st0" d="M30.8,35.6h-5.8l-2.8,3.8h-3.8v-3.8h-6.8v-20l1.9-5h25v17.3L30.8,35.6z M35.5,27V13.6H15.3
		v18.3h5.8v3.8l3.8-3.8h5.8L35.5,27z"/>
	<rect id="_x7C__3_" x="27.8" y="18.3" class="st0" width="2.8" height="7.7"/>
	<rect id="_x7C__1_" x="22.1" y="18.3" class="st0" width="2.8" height="7.7"/>
</g>
<path class="st0" d="M25,3.6c2.9,0,5.7,0.6,8.3,1.7c2.5,1.1,4.8,2.6,6.8,4.6c2,2,3.5,4.2,4.6,6.8c1.1,2.6,1.7,5.4,1.7,8.3
	s-0.6,5.7-1.7,8.3c-1.1,2.5-2.6,4.8-4.6,6.8c-2,2-4.2,3.5-6.8,4.6c-2.6,1.1-5.4,1.7-8.3,1.7s-5.7-0.6-8.3-1.7
	c-2.5-1.1-4.8-2.6-6.8-4.6c-2-2-3.5-4.2-4.6-6.8c-1.1-2.6-1.7-5.4-1.7-8.3s0.6-5.7,1.7-8.3c1.1-2.5,2.6-4.8,4.6-6.8s4.2-3.5,6.8-4.6
	C19.3,4.2,22.1,3.6,25,3.6 M25,0.5C11.4,0.5,0.5,11.4,0.5,25S11.4,49.5,25,49.5S49.5,38.6,49.5,25S38.6,0.5,25,0.5L25,0.5z"/>
</svg>
